<svg xmlns="http://www.w3.org/2000/svg" viewBox="0 0 800.18 501.57"><defs><style>.a{fill:none;stroke:#000;stroke-miterlimit:10;stroke-width:5px;}</style></defs><line class="a" y1="2.5" x2="161.57" y2="2.5"/><line class="a" x1="13.46" y1="47.59" x2="170.61" y2="47.59"/><line class="a" x1="26.91" y1="92.68" x2="181.91" y2="92.68"/><line class="a" x1="40.37" y1="137.77" x2="192.08" y2="137.77"/><line class="a" x1="53.82" y1="182.87" x2="202.24" y2="182.87"/><line class="a" x1="67.28" y1="227.96" x2="212.41" y2="227.96"/><line class="a" x1="80.73" y1="273.05" x2="222.58" y2="273.05"/><line class="a" x1="94.19" y1="318.14" x2="233.88" y2="318.14"/><line class="a" x1="107.64" y1="363.23" x2="271.68" y2="363.23"/><line class="a" x1="121.1" y1="408.32" x2="285.44" y2="408.32"/><line class="a" x1="134.56" y1="453.41" x2="299.21" y2="453.41"/><line class="a" x1="148.01" y1="498.51" x2="312.97" y2="498.51"/><line class="a" x1="164.55" y1="453.41" x2="327.45" y2="453.41"/><line class="a" x1="181.08" y1="408.32" x2="341.94" y2="408.32"/><line class="a" x1="197.62" y1="363.23" x2="356.42" y2="363.23"/><line class="a" x1="246.31" y1="318.14" x2="361.55" y2="318.14"/><line class="a" x1="257.61" y1="273.05" x2="373.98" y2="273.05"/><line class="a" x1="268.91" y1="227.96" x2="385.28" y2="227.96"/><line class="a" x1="281.33" y1="182.87" x2="396.58" y2="182.87"/><line class="a" x1="292.63" y1="137.77" x2="507.3" y2="137.77"/><line class="a" x1="305.06" y1="92.68" x2="494.88" y2="92.68"/><line class="a" x1="317.49" y1="47.59" x2="483.58" y2="47.59"/><line class="a" x1="329.92" y1="2.5" x2="472.28" y2="2.5"/><line class="a" x1="800.18" y1="3.06" x2="638.61" y2="3.06"/><line class="a" x1="786.73" y1="48.15" x2="629.57" y2="48.15"/><line class="a" x1="773.27" y1="93.25" x2="618.28" y2="93.25"/><line class="a" x1="759.82" y1="138.34" x2="608.11" y2="138.34"/><line class="a" x1="746.36" y1="183.43" x2="597.94" y2="183.43"/><line class="a" x1="732.9" y1="228.52" x2="587.77" y2="228.52"/><line class="a" x1="719.45" y1="273.61" x2="577.6" y2="273.61"/><line class="a" x1="705.99" y1="318.7" x2="566.3" y2="318.7"/><line class="a" x1="692.54" y1="363.79" x2="528.5" y2="363.79"/><line class="a" x1="679.08" y1="408.89" x2="514.74" y2="408.89"/><line class="a" x1="665.63" y1="453.98" x2="500.98" y2="453.98"/><line class="a" x1="652.17" y1="499.07" x2="487.21" y2="499.07"/><line class="a" x1="635.63" y1="453.98" x2="472.73" y2="453.98"/><line class="a" x1="619.1" y1="408.89" x2="458.25" y2="408.89"/><line class="a" x1="602.56" y1="363.79" x2="443.76" y2="363.79"/><line class="a" x1="553.87" y1="318.7" x2="438.63" y2="318.7"/><line class="a" x1="542.58" y1="273.61" x2="426.2" y2="273.61"/><line class="a" x1="531.28" y1="228.52" x2="414.9" y2="228.52"/><line class="a" x1="518.85" y1="183.43" x2="403.6" y2="183.43"/></svg>